<svg xmlns="http://www.w3.org/2000/svg" viewBox="0 0 960 800">
  <defs>
    <marker id="arrow-blue" markerWidth="10" markerHeight="7" refX="9" refY="3.5" orient="auto"><polygon points="0 0, 10 3.5, 0 7" fill="#2563eb"/></marker>
    <marker id="arrow-gray" markerWidth="10" markerHeight="7" refX="9" refY="3.5" orient="auto"><polygon points="0 0, 10 3.5, 0 7" fill="#6b7280"/></marker>
    <filter id="shadow" x="-5%" y="-5%" width="115%" height="115%"><feDropShadow dx="1" dy="2" stdDeviation="2" flood-opacity="0.08"/></filter>
  </defs>
  <style>
    text { font-family: "Helvetica Neue", Helvetica, Arial, "PingFang SC", "Microsoft YaHei", sans-serif; }
  </style>

  <!-- Background -->
  <rect width="960" height="800" fill="#ffffff"/>

  <!-- Title -->
  <text x="480" y="28" text-anchor="middle" font-size="16" font-weight="600" fill="#111827">AI Agent 平台 (aPaaS) 四层融合架构全景</text>

  <!-- ====== Top Bar: Open Integration ====== -->
  <rect x="30" y="50" width="900" height="36" rx="6" fill="#f0fdf4" stroke="#86efac" stroke-width="1.5"/>
  <text x="480" y="73" text-anchor="middle" font-size="13" font-weight="600" fill="#166534">开放集成与开发者体验: REST API | gRPC | WebSocket | MCP | A2A | SDK (Python/JS/Java) | CLI</text>

  <!-- Vertical connector line -->
  <line x1="480" y1="86" x2="480" y2="100" stroke="#6b7280" stroke-width="1" stroke-dasharray="4,3"/>

  <!-- ====== Layer 1: Industry Solutions ====== -->
  <rect x="30" y="100" width="900" height="130" rx="8" fill="#faf5ff" stroke="#d8b4fe" stroke-width="1.5" filter="url(#shadow)"/>
  <rect x="30" y="100" width="900" height="28" rx="8" fill="#7c3aed"/>
  <rect x="30" y="110" width="900" height="18" fill="#7c3aed"/>
  <text x="480" y="120" text-anchor="middle" font-size="13" font-weight="600" fill="#ffffff">行业解决方案层 Industry Solutions</text>

  <!-- Industry boxes -->
  <rect x="50" y="140" width="160" height="74" rx="6" fill="#ffffff" stroke="#c4b5fd" stroke-width="1"/>
  <text x="130" y="158" text-anchor="middle" font-size="13" font-weight="600" fill="#7c3aed">物流方案</text>
  <text x="130" y="176" text-anchor="middle" font-size="10" fill="#6b7280">预置Agent</text>
  <text x="130" y="190" text-anchor="middle" font-size="10" fill="#6b7280">行业知识库</text>
  <text x="130" y="204" text-anchor="middle" font-size="10" fill="#6b7280">连接器生态</text>

  <rect x="230" y="140" width="160" height="74" rx="6" fill="#ffffff" stroke="#c4b5fd" stroke-width="1"/>
  <text x="310" y="158" text-anchor="middle" font-size="13" font-weight="600" fill="#7c3aed">金融方案</text>
  <text x="310" y="176" text-anchor="middle" font-size="10" fill="#6b7280">预置Agent</text>
  <text x="310" y="190" text-anchor="middle" font-size="10" fill="#6b7280">合规规则库</text>
  <text x="310" y="204" text-anchor="middle" font-size="10" fill="#6b7280">连接器生态</text>

  <rect x="410" y="140" width="160" height="74" rx="6" fill="#ffffff" stroke="#c4b5fd" stroke-width="1"/>
  <text x="490" y="158" text-anchor="middle" font-size="13" font-weight="600" fill="#7c3aed">制造方案</text>
  <text x="490" y="176" text-anchor="middle" font-size="10" fill="#6b7280">预置Agent</text>
  <text x="490" y="190" text-anchor="middle" font-size="10" fill="#6b7280">设备连接器</text>
  <text x="490" y="204" text-anchor="middle" font-size="10" fill="#6b7280">工艺知识库</text>

  <rect x="590" y="140" width="160" height="74" rx="6" fill="#ffffff" stroke="#c4b5fd" stroke-width="1"/>
  <text x="670" y="158" text-anchor="middle" font-size="13" font-weight="600" fill="#7c3aed">零售方案</text>
  <text x="670" y="176" text-anchor="middle" font-size="10" fill="#6b7280">预置Agent</text>
  <text x="670" y="190" text-anchor="middle" font-size="10" fill="#6b7280">商品图谱</text>
  <text x="670" y="204" text-anchor="middle" font-size="10" fill="#6b7280">连接器生态</text>

  <rect x="770" y="140" width="140" height="74" rx="6" fill="#ffffff" stroke="#c4b5fd" stroke-width="1"/>
  <text x="840" y="158" text-anchor="middle" font-size="13" font-weight="600" fill="#7c3aed">政务方案</text>
  <text x="840" y="176" text-anchor="middle" font-size="10" fill="#6b7280">预置Agent</text>
  <text x="840" y="190" text-anchor="middle" font-size="10" fill="#6b7280">公文模板</text>

  <!-- Down arrow L1->L2 -->
  <line x1="480" y1="230" x2="480" y2="260" stroke="#6b7280" stroke-width="1.5" marker-end="url(#arrow-gray)"/>
  <rect x="460" y="238" width="40" height="14" rx="3" fill="#ffffff" opacity="0.95"/>
  <text x="480" y="248" text-anchor="middle" font-size="9" fill="#6b7280">↓</text>

  <!-- ====== Layer 2: Agent Platform ====== -->
  <rect x="30" y="260" width="900" height="130" rx="8" fill="#eff6ff" stroke="#93c5fd" stroke-width="1.5" filter="url(#shadow)"/>
  <rect x="30" y="260" width="900" height="28" rx="8" fill="#2563eb"/>
  <rect x="30" y="270" width="900" height="18" fill="#2563eb"/>
  <text x="480" y="280" text-anchor="middle" font-size="13" font-weight="600" fill="#ffffff">Agent 平台层 Agent Platform (核心引擎)</text>

  <!-- Agent layer components: row 1 -->
  <rect x="50" y="300" width="130" height="36" rx="6" fill="#ffffff" stroke="#bfdbfe" stroke-width="1"/>
  <text x="115" y="323" text-anchor="middle" font-size="12" font-weight="600" fill="#1d4ed8">Agent生命周期</text>

  <rect x="195" y="300" width="130" height="36" rx="6" fill="#ffffff" stroke="#bfdbfe" stroke-width="1"/>
  <text x="260" y="323" text-anchor="middle" font-size="12" font-weight="600" fill="#1d4ed8">编排引擎</text>

  <rect x="340" y="300" width="130" height="36" rx="6" fill="#ffffff" stroke="#bfdbfe" stroke-width="1"/>
  <text x="405" y="323" text-anchor="middle" font-size="12" font-weight="600" fill="#1d4ed8">技能市场</text>

  <rect x="485" y="300" width="130" height="36" rx="6" fill="#ffffff" stroke="#bfdbfe" stroke-width="1"/>
  <text x="550" y="323" text-anchor="middle" font-size="12" font-weight="600" fill="#1d4ed8">评估监控</text>

  <rect x="630" y="300" width="130" height="36" rx="6" fill="#ffffff" stroke="#bfdbfe" stroke-width="1"/>
  <text x="695" y="323" text-anchor="middle" font-size="12" font-weight="600" fill="#1d4ed8">对话管理</text>

  <rect x="775" y="300" width="135" height="36" rx="6" fill="#ffffff" stroke="#bfdbfe" stroke-width="1"/>
  <text x="842" y="323" text-anchor="middle" font-size="12" font-weight="600" fill="#1d4ed8">Agent Router</text>

  <!-- Agent layer components: row 2 -->
  <rect x="50" y="345" width="130" height="36" rx="6" fill="#ffffff" stroke="#bfdbfe" stroke-width="1"/>
  <text x="115" y="368" text-anchor="middle" font-size="12" font-weight="600" fill="#1d4ed8">记忆系统</text>

  <rect x="195" y="345" width="130" height="36" rx="6" fill="#ffffff" stroke="#bfdbfe" stroke-width="1"/>
  <text x="260" y="368" text-anchor="middle" font-size="12" font-weight="600" fill="#1d4ed8">权限安全</text>

  <rect x="340" y="345" width="130" height="36" rx="6" fill="#ffffff" stroke="#bfdbfe" stroke-width="1"/>
  <text x="405" y="368" text-anchor="middle" font-size="12" font-weight="600" fill="#1d4ed8">MCP/A2A协议</text>


  <!-- Down arrow L2->L3 -->
  <line x1="480" y1="390" x2="480" y2="420" stroke="#6b7280" stroke-width="1.5" marker-end="url(#arrow-gray)"/>
  <rect x="460" y="398" width="40" height="14" rx="3" fill="#ffffff" opacity="0.95"/>
  <text x="480" y="408" text-anchor="middle" font-size="9" fill="#6b7280">↓</text>

  <!-- ====== Layer 3: AI Capabilities ====== -->
  <rect x="30" y="420" width="900" height="130" rx="8" fill="#fef2f2" stroke="#fca5a5" stroke-width="1.5" filter="url(#shadow)"/>
  <rect x="30" y="420" width="900" height="28" rx="8" fill="#dc2626"/>
  <rect x="30" y="430" width="900" height="18" fill="#dc2626"/>
  <text x="480" y="440" text-anchor="middle" font-size="13" font-weight="600" fill="#ffffff">AI 能力层 AI Capabilities</text>

  <rect x="50" y="460" width="130" height="36" rx="6" fill="#ffffff" stroke="#fecaca" stroke-width="1"/>
  <text x="115" y="483" text-anchor="middle" font-size="12" font-weight="600" fill="#b91c1c">模型网关</text>

  <rect x="195" y="460" width="130" height="36" rx="6" fill="#ffffff" stroke="#fecaca" stroke-width="1"/>
  <text x="260" y="483" text-anchor="middle" font-size="12" font-weight="600" fill="#b91c1c">RAG引擎</text>

  <rect x="340" y="460" width="130" height="36" rx="6" fill="#ffffff" stroke="#fecaca" stroke-width="1"/>
  <text x="405" y="483" text-anchor="middle" font-size="12" font-weight="600" fill="#b91c1c">Prompt Hub</text>

  <rect x="485" y="460" width="130" height="36" rx="6" fill="#ffffff" stroke="#fecaca" stroke-width="1"/>
  <text x="550" y="483" text-anchor="middle" font-size="12" font-weight="600" fill="#b91c1c">知识图谱</text>

  <rect x="630" y="460" width="130" height="36" rx="6" fill="#ffffff" stroke="#fecaca" stroke-width="1"/>
  <text x="695" y="483" text-anchor="middle" font-size="12" font-weight="600" fill="#b91c1c">MLOps流水线</text>

  <rect x="775" y="460" width="135" height="36" rx="6" fill="#ffffff" stroke="#fecaca" stroke-width="1"/>
  <text x="842" y="483" text-anchor="middle" font-size="12" font-weight="600" fill="#b91c1c">语义缓存</text>

  <rect x="50" y="505" width="130" height="36" rx="6" fill="#ffffff" stroke="#fecaca" stroke-width="1"/>
  <text x="115" y="528" text-anchor="middle" font-size="12" font-weight="600" fill="#b91c1c">评估引擎</text>


  <!-- Down arrow L3->L4 -->
  <line x1="480" y1="550" x2="480" y2="580" stroke="#6b7280" stroke-width="1.5" marker-end="url(#arrow-gray)"/>
  <rect x="460" y="558" width="40" height="14" rx="3" fill="#ffffff" opacity="0.95"/>
  <text x="480" y="568" text-anchor="middle" font-size="9" fill="#6b7280">↓</text>

  <!-- ====== Layer 4: Infrastructure ====== -->
  <rect x="30" y="580" width="900" height="100" rx="8" fill="#f0fdf4" stroke="#86efac" stroke-width="1.5" filter="url(#shadow)"/>
  <rect x="30" y="580" width="900" height="28" rx="8" fill="#16a34a"/>
  <rect x="30" y="590" width="900" height="18" fill="#16a34a"/>
  <text x="480" y="600" text-anchor="middle" font-size="13" font-weight="600" fill="#ffffff">基础设施层 Infrastructure</text>

  <rect x="50" y="620" width="130" height="36" rx="6" fill="#ffffff" stroke="#bbf7d0" stroke-width="1"/>
  <text x="115" y="643" text-anchor="middle" font-size="12" font-weight="600" fill="#15803d">GPU集群</text>

  <rect x="195" y="620" width="130" height="36" rx="6" fill="#ffffff" stroke="#bbf7d0" stroke-width="1"/>
  <text x="260" y="643" text-anchor="middle" font-size="12" font-weight="600" fill="#15803d">向量数据库</text>

  <rect x="340" y="620" width="130" height="36" rx="6" fill="#ffffff" stroke="#bbf7d0" stroke-width="1"/>
  <text x="405" y="643" text-anchor="middle" font-size="12" font-weight="600" fill="#15803d">图数据库</text>

  <rect x="485" y="620" width="130" height="36" rx="6" fill="#ffffff" stroke="#bbf7d0" stroke-width="1"/>
  <text x="550" y="643" text-anchor="middle" font-size="12" font-weight="600" fill="#15803d">消息队列</text>

  <rect x="630" y="620" width="130" height="36" rx="6" fill="#ffffff" stroke="#bbf7d0" stroke-width="1"/>
  <text x="695" y="643" text-anchor="middle" font-size="12" font-weight="600" fill="#15803d">对象存储</text>

  <rect x="775" y="620" width="135" height="36" rx="6" fill="#ffffff" stroke="#bbf7d0" stroke-width="1"/>
  <text x="842" y="643" text-anchor="middle" font-size="12" font-weight="600" fill="#15803d">可观测性</text>

  <!-- ====== Bottom: Cross-Cutting ====== -->
  <line x1="480" y1="680" x2="480" y2="700" stroke="#6b7280" stroke-width="1" stroke-dasharray="4,3"/>

  <rect x="30" y="700" width="900" height="40" rx="6" fill="#f9fafb" stroke="#d1d5db" stroke-width="1"/>
  <rect x="30" y="700" width="900" height="40" rx="6" fill="none" stroke="#d1d5db" stroke-width="1.5" stroke-dasharray="8,4"/>
  <text x="480" y="725" text-anchor="middle" font-size="12" font-weight="600" fill="#374151">平台横切能力 Cross-Cutting: 多租户隔离 | 计费计量 | 身份认证 | 审计日志 | 配置中心 | 文档中心</text>

  <!-- Layer labels on left side -->
  <text x="20" y="165" text-anchor="middle" font-size="10" fill="#9ca3af" transform="rotate(-90, 20, 165)">行业方案</text>
  <text x="20" y="325" text-anchor="middle" font-size="10" fill="#9ca3af" transform="rotate(-90, 20, 325)">Agent引擎</text>
  <text x="20" y="485" text-anchor="middle" font-size="10" fill="#9ca3af" transform="rotate(-90, 20, 485)">AI能力</text>
  <text x="20" y="630" text-anchor="middle" font-size="10" fill="#9ca3af" transform="rotate(-90, 20, 630)">基础设施</text>

</svg>