<svg xmlns="http://www.w3.org/2000/svg" viewBox="0 0 960 700">
  <defs>
    <marker id="arrow-blue" markerWidth="10" markerHeight="7" refX="9" refY="3.5" orient="auto">
      <polygon points="0 0, 10 3.5, 0 7" fill="#2563eb"/>
    </marker>
    <marker id="arrow-green" markerWidth="10" markerHeight="7" refX="9" refY="3.5" orient="auto">
      <polygon points="0 0, 10 3.5, 0 7" fill="#16a34a"/>
    </marker>
    <marker id="arrow-orange" markerWidth="10" markerHeight="7" refX="9" refY="3.5" orient="auto">
      <polygon points="0 0, 10 3.5, 0 7" fill="#ea580c"/>
    </marker>
    <filter id="shadow" x="-5%" y="-5%" width="110%" height="110%">
      <feDropShadow dx="0" dy="2" stdDeviation="3" flood-color="#000000" flood-opacity="0.08"/>
    </filter>
  </defs>
  <style>
    text { font-family: "Helvetica Neue", Helvetica, Arial, "PingFang SC", "Microsoft YaHei", sans-serif; }
    .title { font-size: 18px; font-weight: 600; fill: #111827; }
    .label { font-size: 14px; font-weight: 400; fill: #111827; }
    .sub-label { font-size: 12px; fill: #6b7280; }
    .small { font-size: 11px; fill: #6b7280; }
  </style>
  <rect width="960" height="700" fill="#ffffff"/>
  <text x="480" y="32" text-anchor="middle" class="title">Harness Engineering 架构总览</text>
  <text x="480" y="52" text-anchor="middle" class="sub-label">瘦 Skill + 胖 Harness · 自然语言触发 · Symlink 分发</text>
  <!-- Layer 0: User Input -->
  <rect x="300" y="72" width="360" height="52" rx="26" fill="#eff6ff" stroke="#bfdbfe" stroke-width="1.5" filter="url(#shadow)"/>
  <text x="480" y="103" text-anchor="middle" class="label">👤 用户自然语言输入</text>
  <text x="480" y="115" text-anchor="middle" class="small" fill="#6b7280">"帮我设计一个方案" · "这个接口报错了"</text>
  <line x1="480" y1="124" x2="480" y2="150" stroke="#2563eb" stroke-width="1.5" marker-end="url(#arrow-blue)"/>
  <!-- Layer 1: Skills Layer -->
  <rect x="40" y="152" width="880" height="155" rx="10" fill="#fafbff" stroke="#d1d5db" stroke-width="1" stroke-dasharray="6,3"/>
  <rect x="50" y="142" width="200" height="20" rx="4" fill="#f0fdf4" stroke="#86efac" stroke-width="1"/>
  <text x="150" y="156" text-anchor="middle" class="small" fill="#166534">~/.claude/skills/ (symlink)</text>
  <text x="60" y="175" class="label" font-weight="600">🧠 Skill 层（瘦 — 仅 3 件事）</text>
  <rect x="55" y="190" width="145" height="58" rx="8" fill="#ede9fe" stroke="#a78bfa" stroke-width="1" filter="url(#shadow)"/>
  <text x="127" y="212" text-anchor="middle" class="label" font-size="11" font-weight="600">harness-entry</text>
  <text x="127" y="232" text-anchor="middle" class="small">触发: 会话启动自动加载</text>
  <rect x="220" y="190" width="145" height="58" rx="8" fill="#dbeafe" stroke="#60a5fa" stroke-width="1" filter="url(#shadow)"/>
  <text x="292" y="212" text-anchor="middle" class="label" font-size="11" font-weight="600">harness-brainstorming</text>
  <text x="292" y="232" text-anchor="middle" class="small">触发: 设计/方案/分析</text>
  <rect x="385" y="190" width="145" height="58" rx="8" fill="#dcfce7" stroke="#4ade80" stroke-width="1" filter="url(#shadow)"/>
  <text x="457" y="212" text-anchor="middle" class="label" font-size="11" font-weight="600">harness-document
-generation</text>
  <text x="457" y="232" text-anchor="middle" class="small">触发: 写文档/出方案</text>
  <rect x="550" y="190" width="145" height="58" rx="8" fill="#fef2f2" stroke="#f87171" stroke-width="1" filter="url(#shadow)"/>
  <text x="622" y="212" text-anchor="middle" class="label" font-size="11" font-weight="600">harness-systematic
-debugging</text>
  <text x="622" y="232" text-anchor="middle" class="small">触发: 修bug/报错</text>
  <rect x="715" y="190" width="145" height="58" rx="8" fill="#faf5ff" stroke="#c084fc" stroke-width="1" filter="url(#shadow)"/>
  <text x="787" y="212" text-anchor="middle" class="label" font-size="11" font-weight="600">harness-code
-review</text>
  <text x="787" y="232" text-anchor="middle" class="small">触发: review/审查</text>
  <rect x="55" y="260" width="145" height="58" rx="8" fill="#fff7ed" stroke="#fdba74" stroke-width="1" filter="url(#shadow)"/>
  <text x="127" y="282" text-anchor="middle" class="label" font-size="11" font-weight="600">harness-implementation</text>
  <text x="127" y="302" text-anchor="middle" class="small">触发: 实现/开发/写代码</text>
  <line x1="480" y1="307" x2="480" y2="340" stroke="#2563eb" stroke-width="1.5" marker-end="url(#arrow-blue)"/>
  <!-- Layer 2: Harness Rules -->
  <rect x="40" y="342" width="880" height="145" rx="10" fill="#fafbff" stroke="#d1d5db" stroke-width="1" stroke-dasharray="6,3"/>
  <rect x="50" y="332" width="220" height="20" rx="4" fill="#fef2f2" stroke="#fca5a5" stroke-width="1"/>
  <text x="160" y="346" text-anchor="middle" class="small" fill="#991b1b">  ~/.claude/harness/01-rules/ (Read 按需加载)</text>
  <text x="60" y="365" class="label" font-weight="600">📐 规则层（胖 — 详细规范全文）</text>
  <rect x="60" y="380" width="220" height="58" rx="8" fill="#ffffff" stroke="#d1d5db" stroke-width="1"/>
  <text x="170" y="404" text-anchor="middle" class="label" font-size="12" font-weight="600">02-development-workflow/</text>
  <text x="170" y="424" text-anchor="middle" class="small">编码规范 · 8层模板 · TDD</text>
  <rect x="310" y="380" width="220" height="58" rx="8" fill="#ffffff" stroke="#d1d5db" stroke-width="1"/>
  <text x="420" y="404" text-anchor="middle" class="label" font-size="12" font-weight="600">04-document-standards/</text>
  <text x="420" y="424" text-anchor="middle" class="small">文档规范 · 模板遵循 · 图表</text>
  <rect x="560" y="380" width="220" height="58" rx="8" fill="#ffffff" stroke="#d1d5db" stroke-width="1"/>
  <text x="670" y="404" text-anchor="middle" class="label" font-size="12" font-weight="600">docs-workflow.md</text>
  <text x="670" y="424" text-anchor="middle" class="small">md2docx · mermaid-render · svg2png</text>
  <line x1="480" y1="487" x2="480" y2="520" stroke="#2563eb" stroke-width="1.5" marker-end="url(#arrow-blue)"/>
  <!-- Layer 3: Foundation -->
  <rect x="40" y="522" width="880" height="70" rx="10" fill="#fafbff" stroke="#d1d5db" stroke-width="1" stroke-dasharray="6,3"/>
  <text x="60" y="545" class="label" font-weight="600">🏗️ 基础设施层</text>
  <rect x="60" y="555" width="190" height="30" rx="6" fill="#ffffff" stroke="#d1d5db" stroke-width="1"/>
  <text x="155" y="574" text-anchor="middle" class="small" fill="#111827">00-harness-core/  10阶段流水线 · 5质量门禁</text>
  <rect x="260" y="555" width="190" height="30" rx="6" fill="#ffffff" stroke="#d1d5db" stroke-width="1"/>
  <text x="355" y="574" text-anchor="middle" class="small" fill="#111827">09-templates/  文档模板 · PRD · 设计文档</text>
  <rect x="460" y="555" width="190" height="30" rx="6" fill="#ffffff" stroke="#d1d5db" stroke-width="1"/>
  <text x="555" y="574" text-anchor="middle" class="small" fill="#111827">scripts/doc/  mermaid-render · md2docx</text>
  <rect x="660" y="555" width="190" height="30" rx="6" fill="#ffffff" stroke="#d1d5db" stroke-width="1"/>
  <text x="755" y="574" text-anchor="middle" class="small" fill="#111827">install.sh  一键安装 · symlink 注册</text>
  <!-- Distribution -->
  <rect x="750" y="615" width="170" height="65" rx="8" fill="#f0fdf4" stroke="#86efac" stroke-width="1.5" filter="url(#shadow)"/>
  <text x="835" y="638" text-anchor="middle" class="label" font-weight="600">🚀 团队分发</text>
  <text x="835" y="655" text-anchor="middle" class="small" fill="#166534">git clone + ./install.sh</text>
  <text x="835" y="670" text-anchor="middle" class="small" fill="#166534">git pull 即可更新</text>
  <text x="480" y="692" text-anchor="middle" class="small">开源 GitHub 仓库 · 所有内容通过 symlink 自动生效 · 无需手动复制</text>
</svg>