<svg xmlns="http://www.w3.org/2000/svg" viewBox="0 0 960 730">
  <defs>
    <marker id="arr-blue" markerWidth="10" markerHeight="7" refX="9" refY="3.5" orient="auto"><polygon points="0 0, 10 3.5, 0 7" fill="#2563eb"/></marker>
    <marker id="arr-green" markerWidth="10" markerHeight="7" refX="9" refY="3.5" orient="auto"><polygon points="0 0, 10 3.5, 0 7" fill="#16a34a"/></marker>
    <marker id="arr-orange" markerWidth="10" markerHeight="7" refX="9" refY="3.5" orient="auto"><polygon points="0 0, 10 3.5, 0 7" fill="#ea580c"/></marker>
    <marker id="arr-purple" markerWidth="10" markerHeight="7" refX="9" refY="3.5" orient="auto"><polygon points="0 0, 10 3.5, 0 7" fill="#9333ea"/></marker>
    <marker id="arr-pink" markerWidth="10" markerHeight="7" refX="9" refY="3.5" orient="auto"><polygon points="0 0, 10 3.5, 0 7" fill="#db2777"/></marker>
    <marker id="arr-cyan" markerWidth="10" markerHeight="7" refX="9" refY="3.5" orient="auto"><polygon points="0 0, 10 3.5, 0 7" fill="#38bdf8"/></marker>
    <marker id="arr-gray" markerWidth="10" markerHeight="7" refX="9" refY="3.5" orient="auto"><polygon points="0 0, 10 3.5, 0 7" fill="#6b7280"/></marker>
    <filter id="sh" x="-5%" y="-5%" width="110%" height="110%"><feDropShadow dx="0" dy="2" stdDeviation="3" flood-color="#000" flood-opacity="0.08"/></filter>
  </defs>
  <style>text{font-family:"Helvetica Neue",Helvetica,Arial,"PingFang SC","Microsoft YaHei",sans-serif}.t{font-size:18px;font-weight:600;fill:#111827}.lb{font-size:13px;font-weight:600;fill:#111827}.ln{font-size:13px;fill:#111827}.s{font-size:10px;fill:#6b7280}.sw{font-size:10px;fill:#fff}.swb{font-size:10px;fill:#fff;font-weight:600}.sg{font-size:10px;fill:#94a3b8}</style>
  <rect width="960" height="730" fill="#fff"/>
  <text x="480" y="28" text-anchor="middle" class="t">Skill 触发关系与链式移交</text>
  <text x="480" y="46" text-anchor="middle" class="s">10 个 Skill 通过 description 字段自然语言触发，链式移交实现端到端流程</text>
<rect x="330" y="62" width="300" height="48" rx="12" fill="#1e293b" stroke="#334155" stroke-width="2" filter="url(#sh)"/>
<text x="480.0" y="82" text-anchor="middle" class="ln" fill="#fff">harness-entry</text>
<text x="480.0" y="99" text-anchor="middle" class="sg">会话启动自动加载 · 分诊路由至 10 Skills</text>
<rect x="30" y="178" width="260" height="48" rx="10" fill="#dbeafe" stroke="#60a5fa" stroke-width="1.5" filter="url(#sh)"/>
<text x="160.0" y="198" text-anchor="middle" class="lb">harness-brainstorming</text>
<text x="160.0" y="215" text-anchor="middle" class="s">触发: 设计/方案/架构 · 9步方案设计</text>
<rect x="650" y="178" width="280" height="48" rx="10" fill="#fef2f2" stroke="#f87171" stroke-width="1.5" filter="url(#sh)"/>
<text x="790.0" y="198" text-anchor="middle" class="lb">harness-systematic-debugging</text>
<text x="790.0" y="215" text-anchor="middle" class="s">触发: 修bug/报错 · 四阶段根因分析</text>
<rect x="30" y="286" width="260" height="48" rx="10" fill="#fce7f3" stroke="#f9a8d4" stroke-width="1.5" filter="url(#sh)"/>
<text x="160.0" y="306" text-anchor="middle" class="lb">harness-design-review</text>
<text x="160.0" y="323" text-anchor="middle" class="s">触发: 审核方案 · 四检查面 · 循环至零阻断</text>
<rect x="308" y="286" width="314" height="48" rx="10" fill="#dcfce7" stroke="#4ade80" stroke-width="1.5" filter="url(#sh)"/>
<text x="465.0" y="306" text-anchor="middle" class="lb">harness-document-generation</text>
<text x="465.0" y="323" text-anchor="middle" class="s">模板+Mermaid+PNG+DOCX · 完成后询问是否编码</text>
<rect x="640" y="286" width="290" height="48" rx="10" fill="#e0f2fe" stroke="#7dd3fc" stroke-width="1.5" filter="url(#sh)"/>
<text x="785.0" y="306" text-anchor="middle" class="lb">harness-pmo</text>
<text x="785.0" y="323" text-anchor="middle" class="s">触发: 拆任务/排期/里程碑 · AI提案PM确认</text>
<rect x="30" y="404" width="315" height="48" rx="10" fill="#fff7ed" stroke="#fdba74" stroke-width="1.5" filter="url(#sh)"/>
<text x="187.5" y="424" text-anchor="middle" class="lb">harness-implementation</text>
<text x="187.5" y="441" text-anchor="middle" class="s">技术栈检测 · TDD · RED→GREEN→REFACTOR</text>
<rect x="650" y="404" width="280" height="48" rx="10" fill="#faf5ff" stroke="#a78bfa" stroke-width="1.5" filter="url(#sh)"/>
<text x="790.0" y="424" text-anchor="middle" class="lb">harness-testing</text>
<text x="790.0" y="441" text-anchor="middle" class="s">单测+覆盖率≥80% · E2E截图 · 压测(可独立触发)</text>
<rect x="310" y="528" width="340" height="48" rx="10" fill="#fef3c7" stroke="#f59e0b" stroke-width="1.5" filter="url(#sh)"/>
<text x="480.0" y="548" text-anchor="middle" class="lb">harness-code-review</text>
<text x="480.0" y="565" text-anchor="middle" class="s">角色分离 · 三阶段评审 · PR后5 Agent深度审查</text>
<rect x="30" y="533" width="240" height="40" rx="8" fill="#f5f5f4" stroke="#a8a29e" stroke-width="1" filter="url(#sh)"/>
<text x="150.0" y="550" text-anchor="middle" class="lb">harness-init</text>
<text x="150.0" y="564" text-anchor="middle" class="s">初始化项目规范 · project-conventions.md</text>
<path d="M 420.0 110 L 420.0 132 L 160.0 132 L 160.0 176" stroke="#2563eb" stroke-width="1.5" fill="none" marker-end="url(#arr-blue)"/>
<rect x="120.0" y="122" width="80" height="15" rx="3" fill="#fff" opacity="0.95"/>
<text x="160.0" y="133" text-anchor="middle" class="s" fill="#2563eb" font-weight="600">设计/方案</text>
<path d="M 540.0 110 L 540.0 132 L 790.0 132 L 790.0 176" stroke="#ea580c" stroke-width="1.5" fill="none" marker-end="url(#arr-orange)"/>
<rect x="752.0" y="122" width="76" height="15" rx="3" fill="#fff" opacity="0.95"/>
<text x="790.0" y="133" text-anchor="middle" class="s" fill="#ea580c" font-weight="600">修bug/报错</text>
<path d="M 160.0 226 L 160.0 284" stroke="#db2777" stroke-width="1.5" fill="none" marker-end="url(#arr-pink)"/>
<rect x="118.0" y="232" width="84" height="15" rx="3" fill="#fff" opacity="0.95"/>
<text x="160.0" y="243" text-anchor="middle" class="s" fill="#db2777" font-weight="600">可选: 审核方案</text>
<path d="M 290 202.0 L 306 202.0" stroke="#16a34a" stroke-width="1.5" fill="none" marker-end="url(#arr-green)"/>
<rect x="294" y="193.0" width="46" height="15" rx="3" fill="#fff" opacity="0.95"/>
<text x="317.0" y="204.0" text-anchor="middle" class="s" fill="#16a34a">出文档</text>
<path d="M 60 226 L 60 240 L 15 240 L 15 400 L 60 400 L 60 402" stroke="#2563eb" stroke-width="1" stroke-dasharray="5,3" fill="none" marker-end="url(#arr-blue)"/>
<rect x="18" y="229" width="64" height="15" rx="3" fill="#fff" opacity="0.95"/>
<text x="50.0" y="240" text-anchor="middle" class="s" fill="#2563eb">直接编码</text>
<path d="M 46 286 L 46 268 L 46 268 L 46 226" stroke="#db2777" stroke-width="1" stroke-dasharray="4,2" fill="none"/>
<polygon points="40,226 46,220 52,226" fill="#db2777"/>
<text x="12" y="264" class="s" fill="#db2777">修订→重审</text>
<path d="M 290 310.0 L 306 310.0" stroke="#db2777" stroke-width="1.5" fill="none" marker-end="url(#arr-pink)"/>
<rect x="294" y="301.0" width="52" height="15" rx="3" fill="#fff" opacity="0.95"/>
<text x="320.0" y="312.0" text-anchor="middle" class="s" fill="#db2777">审核通过</text>
<path d="M 630 77 L 785.0 77 L 785.0 284" stroke="#38bdf8" stroke-width="1.5" fill="none" marker-end="url(#arr-cyan)"/>
<rect x="635" y="66" width="52" height="15" rx="3" fill="#fff" opacity="0.95"/>
<text x="661.0" y="77" text-anchor="middle" class="s" fill="#38bdf8">独立触发</text>
<path d="M 630 97 L 830.0 97 L 830.0 176" stroke="#9333ea" stroke-width="1.5" fill="none" marker-end="url(#arr-purple)"/>
<rect x="635" y="86" width="60" height="15" rx="3" fill="#fff" opacity="0.95"/>
<text x="665.0" y="97" text-anchor="middle" class="s" fill="#9333ea">可独立触发</text>
<path d="M 465.0 334 L 465.0 428.0 L 345 428.0" stroke="#2563eb" stroke-width="1.5" fill="none" marker-end="url(#arr-blue)"/>
<rect x="468.0" y="340" width="74" height="15" rx="3" fill="#fff" opacity="0.95"/>
<text x="505.0" y="351" text-anchor="middle" class="s" fill="#2563eb">文档完成→编码</text>
<path d="M 345 428.0 L 648 428.0" stroke="#9333ea" stroke-width="1.5" fill="none" marker-end="url(#arr-purple)"/>
<rect x="350" y="419.0" width="90" height="15" rx="3" fill="#fff" opacity="0.95"/>
<text x="395.0" y="430.0" text-anchor="middle" class="s" fill="#9333ea" font-weight="600">编码完成→测试</text>
<path d="M 790.0 452 L 790.0 592 L 480.0 592 L 480.0 576" stroke="#2563eb" stroke-width="1.5" fill="none" marker-end="url(#arr-blue)"/>
<rect x="748.0" y="457" width="84" height="15" rx="3" fill="#fff" opacity="0.95"/>
<text x="790.0" y="468" text-anchor="middle" class="s" fill="#2563eb">测试通过→评审</text>
<path d="M 270 553.0 L 308 553.0" stroke="#6b7280" stroke-width="1" stroke-dasharray="4,2" fill="none"/>
<polygon points="302,553.0 308,549.0 308,557.0" fill="#6b7280"/>
<text x="274" y="549.0" class="s" fill="#6b7280">提供约定</text>
<rect x="30" y="610" width="900" height="50" rx="8" fill="#f9fafb" stroke="#e5e7eb" stroke-width="1"/>
<text x="50" y="626" class="s" font-weight="600">图例:</text>
<rect x="100" y="614" width="16" height="11" rx="3" fill="2563eb" opacity="0.3" stroke="2563eb" stroke-width="1"/>
<text x="120" y="623" class="s">主链路: 设计→(审核)→文档→实现→测试→评审</text>
<line x1="305" y1="619" x2="321" y2="619" stroke="2563eb" stroke-width="1" stroke-dasharray="5,3"/>
<text x="325" y="623" class="s">直接编码 (跳过文档/审核)</text>
<rect x="510" y="614" width="16" height="11" rx="3" fill="db2777" opacity="0.3" stroke="db2777" stroke-width="1"/>
<text x="530" y="623" class="s">方案审核 (可选门禁)</text>
<rect x="715" y="614" width="16" height="11" rx="3" fill="16a34a" opacity="0.3" stroke="16a34a" stroke-width="1"/>
<text x="735" y="623" class="s">文档链</text>
<rect x="100" y="631" width="16" height="11" rx="3" fill="ea580c" opacity="0.3" stroke="ea580c" stroke-width="1"/>
<text x="120" y="640" class="s">调试链 (独立)</text>
<rect x="305" y="631" width="16" height="11" rx="3" fill="38bdf8" opacity="0.3" stroke="38bdf8" stroke-width="1"/>
<text x="325" y="640" class="s">PMO (独立触发)</text>
<rect x="510" y="631" width="16" height="11" rx="3" fill="9333ea" opacity="0.3" stroke="9333ea" stroke-width="1"/>
<text x="530" y="640" class="s">测试 (可独立触发)</text>
<rect x="715" y="631" width="16" height="11" rx="3" fill="6b7280" opacity="0.3" stroke="6b7280" stroke-width="1"/>
<text x="735" y="640" class="s">init (提供项目约定)</text>
<text x="50" y="658" class="s" fill="#9ca3af">实线 = 主推荐路径 · 虚线 = 可选/独立路径 · 10 Skill 全部自然语言触发，均可独立或链式触发</text>
</svg>